<?xml version="1.0" encoding="UTF-8" standalone="no"?>
<!-- Created with Inkscape (http://www.inkscape.org/) -->

<svg
   xmlns:dc="http://purl.org/dc/elements/1.1/"
   xmlns:cc="http://creativecommons.org/ns#"
   xmlns:rdf="http://www.w3.org/1999/02/22-rdf-syntax-ns#"
   xmlns:svg="http://www.w3.org/2000/svg"
   xmlns="http://www.w3.org/2000/svg"
   xmlns:inkscape="http://www.inkscape.org/namespaces/inkscape"
   version="1.1"
   width="81.362503"
   height="78.425003"
   id="svg2"
   xml:space="preserve"><metadata
     id="metadata8"><rdf:RDF><cc:Work
         rdf:about=""><dc:format>image/svg+xml</dc:format><dc:type
           rdf:resource="http://purl.org/dc/dcmitype/StillImage" /></cc:Work></rdf:RDF></metadata><defs
     id="defs6" /><g
     transform="matrix(1.25,0,0,-1.25,0,78.425)"
     id="g10"><g
       transform="scale(0.1,0.1)"
       id="g12"><path
         d="m 633.156,211.523 c 15.821,11.387 23.797,35.704 17.715,54.2 L 544.258,593.945 c -6.004,18.516 -26.778,33.5 -46.172,33.5 l -345.313,0 c -19.335,0 -40.156,-15.011 -46.171,-33.5 L 0,265.684 C -6.00391,247.188 1.88672,222.91 17.7852,211.438 L 296.895,8.54688 c 15.695,-11.39063 41.503,-11.39063 57.148,0 L 633.156,211.523"
         inkscape:connector-curvature="0"
         id="path14"
         style="fill:#f14825;fill-opacity:1;fill-rule:nonzero;stroke:none" /><path
         d="m 548.125,321.238 c 4.316,-13.289 -3.523,-24.05 -17.402,-24.05 l -408.172,0 c -13.821,0 -21.711,10.761 -17.383,24.05 l 65.449,201.098 c 4.16,13.246 19.141,24.004 32.938,24.004 l 246.261,0 c 13.817,0 28.731,-10.758 32.95,-23.957 l 11.082,-34.309 c 4.375,-13.078 -3.496,-23.879 -17.305,-23.879 l -202.363,0 c -13.907,0 -28.543,-10.859 -32.676,-24.058 l -10.859,-35.032 c -4.083,-13.191 3.878,-24.027 17.648,-24.027 l 255.242,0 c 13.801,0 28.625,-10.773 33,-23.855 l 11.59,-35.985"
         inkscape:connector-curvature="0"
         id="path16"
         style="fill:#ffffff;fill-opacity:1;fill-rule:nonzero;stroke:none" /><path
         d="m 175.996,205 c -11.289,8.105 -9.109,14.688 4.785,14.688 l 291.817,0 c 13.855,0 16.007,-6.583 4.816,-14.688 L 347.16,110.207 c -11.34,-8.125 -29.64,-8.125 -40.89,0 L 175.996,205"
         inkscape:connector-curvature="0"
         id="path18"
         style="fill:#ffffff;fill-opacity:1;fill-rule:nonzero;stroke:none" /></g></g></svg>